<svg xmlns="http://www.w3.org/2000/svg"  xmlns:xlink="http://www.w3.org/1999/xlink"  viewBox="0 0 166.21 31.74" id="svg10778207700"><g transform="translate(0.418 0.189)"><path d="M 0 0 L 165.37 0 L 165.37 30.902 L 0 30.902 Z" fill="transparent"></path><path d="M 24.029 10.24 L 18.019 20.53 L 12.01 10.24 Z" fill="rgb(158,158,158)"></path><path d="M 0 30.83 L 6.009 20.536 L 12.014 30.83 Z" fill="rgb(134,134,134)"></path><path d="M 18.024 20.522 L 12.014 30.813 L 6.006 20.522 Z" fill="rgb(122,122,122)"></path><path d="M 6.022 20.514 L 12.032 10.222 L 18.039 20.514 L 6.021 20.514 Z" fill="rgb(82,82,82)"></path><path d="M 12.01 10.292 L 18.02 0 L 24.028 10.292 Z" fill="rgb(189,189,189)"></path><path d="M 36.041 30.811 L 30.034 20.519 L 24.024 30.811 Z" fill="rgb(176,176,176)"></path><path d="M 18.019 20.522 L 24.025 30.813 L 30.038 20.522 Z" fill="rgb(162,162,162)"></path><path d="M 30.052 20.514 L 24.045 10.222 L 18.036 20.514 Z" fill="rgb(111,111,111)"></path><path d="M 45.336 13.191 C 44.247 13.191 42.863 13.661 42.115 14.267 L 42.126 7.653 L 39.791 7.653 L 39.763 24.466 L 42.098 24.466 L 42.099 23.637 C 42.983 24.287 44.229 24.69 45.317 24.69 C 48.537 24.69 50.921 22.247 50.926 18.952 C 50.931 15.657 48.555 13.19 45.336 13.19 Z M 45.093 22.808 C 43.824 22.808 42.714 22.225 42.103 21.037 C 41.772 20.392 41.603 19.676 41.608 18.952 C 41.61 18.19 41.792 17.472 42.111 16.844 C 42.725 15.657 43.836 15.096 45.106 15.096 C 47.034 15.096 48.595 16.687 48.591 18.952 C 48.588 21.193 47.021 22.808 45.093 22.808 Z M 57.375 13.168 C 55.675 13.168 54.154 13.908 53.086 15.074 L 54.694 16.509 C 55.33 15.634 56.306 15.074 57.372 15.074 C 59.276 15.074 59.547 16.038 59.546 16.732 L 59.544 17.472 L 56.37 17.472 C 54.216 17.472 52.129 18.458 52.124 21.216 C 52.122 23.189 53.796 24.669 56.359 24.669 C 57.265 24.669 58.716 24.354 59.535 23.256 L 59.533 24.467 L 61.868 24.467 L 61.881 16.732 C 61.883 15.095 60.595 13.168 57.375 13.168 Z M 59.538 21.015 C 59.537 21.776 58.832 22.785 56.678 22.785 C 55.477 22.785 54.616 22.359 54.482 21.306 C 54.326 20.05 55.301 19.356 56.684 19.356 L 59.541 19.356 Z M 63.623 18.952 C 63.617 22.247 65.993 24.69 69.213 24.69 C 70.324 24.69 71.549 24.287 72.435 23.637 L 72.433 24.466 L 74.791 24.466 L 74.818 7.654 L 72.46 7.654 L 72.45 14.267 C 71.702 13.661 70.343 13.19 69.232 13.19 C 66.013 13.19 63.627 15.657 63.623 18.952 Z M 65.981 18.952 C 65.984 16.688 67.551 15.096 69.455 15.096 C 70.725 15.096 71.858 15.656 72.445 16.844 C 72.762 17.472 72.942 18.189 72.941 18.952 C 72.944 19.677 72.771 20.392 72.439 21.036 C 71.847 22.225 70.712 22.808 69.443 22.808 C 67.539 22.808 65.977 21.193 65.981 18.952 Z M 85.401 24.466 L 88.417 24.466 L 82.873 17.696 L 88.095 13.392 L 84.467 13.392 L 79.949 17.27 L 79.966 7.653 L 77.607 7.653 L 77.579 24.466 L 79.937 24.466 L 79.945 20.14 L 81.171 19.109 Z M 94.194 13.168 C 92.494 13.168 90.973 13.908 89.905 15.074 L 91.513 16.509 C 92.149 15.634 93.125 15.074 94.191 15.074 C 96.095 15.074 96.366 16.038 96.364 16.732 L 96.363 17.472 L 93.189 17.472 C 91.035 17.472 88.948 18.458 88.943 21.216 C 88.94 23.189 90.615 24.669 93.178 24.669 C 94.084 24.669 95.535 24.354 96.354 23.256 L 96.351 24.467 L 98.687 24.467 L 98.699 16.732 C 98.702 15.095 97.413 13.168 94.194 13.168 Z M 96.357 21.015 C 96.356 21.776 95.651 22.785 93.497 22.785 C 92.296 22.785 91.435 22.359 91.301 21.306 C 91.145 20.05 92.12 19.356 93.503 19.356 L 96.36 19.356 Z M 110.962 18.077 C 111.124 16.284 111.942 15.074 113.892 15.074 C 115.819 15.074 116.407 16.059 116.404 18.302 L 116.394 24.466 L 118.729 24.466 L 118.739 18.077 C 118.745 14.446 116.934 12.988 113.896 13.213 C 112.58 13.302 111.06 14.042 110.582 15.566 C 109.882 13.773 108.318 13.056 106.119 13.213 C 104.781 13.302 103.487 14.199 103.168 15.186 L 103.172 13.392 L 100.836 13.392 L 100.818 24.467 L 103.153 24.467 L 103.162 18.526 C 103.166 16.575 103.939 15.074 106.116 15.074 C 108.043 15.074 108.63 16.059 108.627 18.302 L 108.617 24.377 L 108.595 24.466 L 110.952 24.466 Z M 131.275 18.952 C 131.28 18.591 131.25 18.231 131.186 17.876 C 130.715 15.096 129.131 13.19 125.662 13.19 C 122.193 13.19 120.035 15.657 120.03 18.952 C 120.024 22.247 122.243 24.691 125.87 24.691 C 128.386 24.691 129.612 23.794 130.362 22.785 L 128.755 21.35 C 128.118 22.247 126.938 22.808 125.873 22.808 C 124.422 22.808 122.451 21.821 122.455 19.782 L 131.274 19.782 Z M 122.503 17.876 C 122.506 16.239 123.936 15.096 125.659 15.096 C 127.382 15.096 128.832 16.082 128.828 17.876 Z M 139.672 13.527 C 139.355 13.347 138.698 13.19 138.086 13.19 C 136.748 13.19 135.546 13.93 135.272 14.961 L 135.274 13.392 L 132.939 13.392 L 132.921 24.467 L 135.257 24.467 L 135.265 19.154 C 135.268 16.912 136.179 15.096 138.106 15.096 C 138.514 15.096 139.013 15.253 139.17 15.343 Z" fill="#d4d7e2"></path><path d="M 151.235 13.392 L 148.56 13.392 L 146.059 17.092 L 143.549 13.392 L 140.873 13.392 L 144.855 18.929 L 140.856 24.466 L 143.531 24.466 L 146.053 20.767 L 148.541 24.467 L 151.217 24.467 L 147.259 18.93 L 151.235 13.392 Z M 161.619 13.392 L 158.943 13.392 L 156.443 17.092 L 153.933 13.392 L 151.258 13.392 L 155.239 18.929 L 151.24 24.466 L 153.915 24.466 L 156.437 20.767 L 158.925 24.467 L 161.601 24.467 L 157.642 18.93 L 161.619 13.392 Z M 165.37 7.228 L 163.012 7.228 L 162.984 24.466 L 165.342 24.466 Z" fill="#d4d7e2"></path></g></svg>